<mxfile host="app.diagrams.net" modified="2024-04-22T12:58:12.936Z" agent="Mozilla/5.0 (X11; Linux x86_64) AppleWebKit/537.36 (KHTML, like Gecko) Chrome/124.0.0.0 Safari/537.36" etag="f0_1oztXloBOa3gfrDBp" version="24.2.7" type="device">
  <diagram name="Page-1" id="2YBvvXClWsGukQMizWep">
    <mxGraphModel dx="1364" dy="759" grid="1" gridSize="10" guides="1" tooltips="1" connect="1" arrows="1" fold="1" page="1" pageScale="1" pageWidth="850" pageHeight="1100" math="0" shadow="0">
      <root>
        <mxCell id="0" />
        <mxCell id="1" parent="0" />
        <mxCell id="65FZGE9juqJNGa7GJoz4-2" value="" style="rounded=0;whiteSpace=wrap;html=1;" parent="1" vertex="1">
          <mxGeometry x="64" y="541" width="720" height="337" as="geometry" />
        </mxCell>
        <mxCell id="65FZGE9juqJNGa7GJoz4-3" value="" style="endArrow=classic;html=1;rounded=0;" parent="1" edge="1">
          <mxGeometry width="50" height="50" relative="1" as="geometry">
            <mxPoint x="134" y="578" as="sourcePoint" />
            <mxPoint x="409.5" y="578" as="targetPoint" />
          </mxGeometry>
        </mxCell>
        <mxCell id="65FZGE9juqJNGa7GJoz4-4" value="&lt;span style=&quot;font-size: 13px;&quot;&gt;demande de la modification d&#39;une task&lt;/span&gt;" style="edgeLabel;html=1;align=center;verticalAlign=middle;resizable=0;points=[];" parent="65FZGE9juqJNGa7GJoz4-3" vertex="1" connectable="0">
          <mxGeometry x="-0.103" y="3" relative="1" as="geometry">
            <mxPoint x="2" y="-17" as="offset" />
          </mxGeometry>
        </mxCell>
        <mxCell id="65FZGE9juqJNGa7GJoz4-5" value="&lt;span style=&quot;font-size: 13px;&quot;&gt;mise à jour&lt;/span&gt;" style="edgeLabel;html=1;align=center;verticalAlign=middle;resizable=0;points=[];" parent="65FZGE9juqJNGa7GJoz4-3" vertex="1" connectable="0">
          <mxGeometry x="-0.103" y="3" relative="1" as="geometry">
            <mxPoint x="302" y="3" as="offset" />
          </mxGeometry>
        </mxCell>
        <mxCell id="65FZGE9juqJNGa7GJoz4-6" value="&lt;span style=&quot;font-size: 13px;&quot;&gt;mise à jour effectuée&lt;/span&gt;" style="edgeLabel;html=1;align=center;verticalAlign=middle;resizable=0;points=[];" parent="65FZGE9juqJNGa7GJoz4-3" vertex="1" connectable="0">
          <mxGeometry x="-0.103" y="3" relative="1" as="geometry">
            <mxPoint x="296" y="49" as="offset" />
          </mxGeometry>
        </mxCell>
        <mxCell id="65FZGE9juqJNGa7GJoz4-8" value="&lt;span style=&quot;font-size: 13px;&quot;&gt;message d&#39;erreur&lt;/span&gt;" style="edgeLabel;html=1;align=center;verticalAlign=middle;resizable=0;points=[];" parent="65FZGE9juqJNGa7GJoz4-3" vertex="1" connectable="0">
          <mxGeometry x="-0.103" y="3" relative="1" as="geometry">
            <mxPoint x="6" y="268" as="offset" />
          </mxGeometry>
        </mxCell>
        <mxCell id="65FZGE9juqJNGa7GJoz4-9" value="" style="endArrow=classic;html=1;rounded=0;" parent="1" edge="1">
          <mxGeometry width="50" height="50" relative="1" as="geometry">
            <mxPoint x="424" y="598.5" as="sourcePoint" />
            <mxPoint x="679" y="598.5" as="targetPoint" />
            <Array as="points">
              <mxPoint x="509" y="598.5" />
            </Array>
          </mxGeometry>
        </mxCell>
        <mxCell id="65FZGE9juqJNGa7GJoz4-10" value="" style="endArrow=none;dashed=1;html=1;rounded=0;startArrow=classic;startFill=1;" parent="1" edge="1">
          <mxGeometry width="50" height="50" relative="1" as="geometry">
            <mxPoint x="424" y="638" as="sourcePoint" />
            <mxPoint x="674" y="638" as="targetPoint" />
          </mxGeometry>
        </mxCell>
        <mxCell id="65FZGE9juqJNGa7GJoz4-12" value="" style="endArrow=classic;html=1;rounded=0;" parent="1" edge="1">
          <mxGeometry width="50" height="50" relative="1" as="geometry">
            <mxPoint x="131.25" y="730" as="sourcePoint" />
            <mxPoint x="406.75" y="730" as="targetPoint" />
          </mxGeometry>
        </mxCell>
        <mxCell id="65FZGE9juqJNGa7GJoz4-13" value="&lt;span style=&quot;font-size: 13px;&quot;&gt;demande de la modification d&#39;une task&lt;/span&gt;" style="edgeLabel;html=1;align=center;verticalAlign=middle;resizable=0;points=[];" parent="65FZGE9juqJNGa7GJoz4-12" vertex="1" connectable="0">
          <mxGeometry x="-0.103" y="3" relative="1" as="geometry">
            <mxPoint x="5" y="-17" as="offset" />
          </mxGeometry>
        </mxCell>
        <mxCell id="65FZGE9juqJNGa7GJoz4-14" value="&lt;span style=&quot;font-size: 13px;&quot;&gt;mise à jour&lt;/span&gt;" style="edgeLabel;html=1;align=center;verticalAlign=middle;resizable=0;points=[];" parent="65FZGE9juqJNGa7GJoz4-12" vertex="1" connectable="0">
          <mxGeometry x="-0.103" y="3" relative="1" as="geometry">
            <mxPoint x="302" y="3" as="offset" />
          </mxGeometry>
        </mxCell>
        <mxCell id="65FZGE9juqJNGa7GJoz4-15" value="&lt;span style=&quot;font-size: 13px;&quot;&gt;echec de la mise à jour&lt;/span&gt;" style="edgeLabel;html=1;align=center;verticalAlign=middle;resizable=0;points=[];" parent="65FZGE9juqJNGa7GJoz4-12" vertex="1" connectable="0">
          <mxGeometry x="-0.103" y="3" relative="1" as="geometry">
            <mxPoint x="296" y="49" as="offset" />
          </mxGeometry>
        </mxCell>
        <mxCell id="65FZGE9juqJNGa7GJoz4-16" value="" style="endArrow=none;dashed=1;html=1;rounded=0;entryX=1.004;entryY=0.611;entryDx=0;entryDy=0;entryPerimeter=0;" parent="1" edge="1">
          <mxGeometry width="50" height="50" relative="1" as="geometry">
            <mxPoint x="64" y="681.09" as="sourcePoint" />
            <mxPoint x="786.8800000000001" y="679.997" as="targetPoint" />
          </mxGeometry>
        </mxCell>
        <mxCell id="65FZGE9juqJNGa7GJoz4-17" value="&lt;font style=&quot;font-size: 15px;&quot;&gt;Diagramme de séquences user/task&lt;/font&gt;" style="text;html=1;align=center;verticalAlign=middle;whiteSpace=wrap;rounded=0;" parent="1" vertex="1">
          <mxGeometry x="284.5" width="295.5" height="30" as="geometry" />
        </mxCell>
        <mxCell id="65FZGE9juqJNGa7GJoz4-18" value="" style="endArrow=classic;html=1;rounded=0;" parent="1" edge="1">
          <mxGeometry width="50" height="50" relative="1" as="geometry">
            <mxPoint x="424" y="807" as="sourcePoint" />
            <mxPoint x="679" y="807" as="targetPoint" />
          </mxGeometry>
        </mxCell>
        <mxCell id="65FZGE9juqJNGa7GJoz4-20" value="" style="endArrow=none;dashed=1;html=1;rounded=0;startArrow=classic;startFill=1;" parent="1" edge="1">
          <mxGeometry width="50" height="50" relative="1" as="geometry">
            <mxPoint x="134" y="858" as="sourcePoint" />
            <mxPoint x="409.5" y="858" as="targetPoint" />
          </mxGeometry>
        </mxCell>
        <mxCell id="65FZGE9juqJNGa7GJoz4-21" value="&lt;b&gt;else&lt;/b&gt;" style="text;html=1;align=center;verticalAlign=middle;whiteSpace=wrap;rounded=0;" parent="1" vertex="1">
          <mxGeometry x="64" y="748" width="60" height="30" as="geometry" />
        </mxCell>
        <mxCell id="65FZGE9juqJNGa7GJoz4-22" value="&lt;b&gt;Alt&lt;/b&gt;" style="text;html=1;align=center;verticalAlign=middle;whiteSpace=wrap;rounded=0;" parent="1" vertex="1">
          <mxGeometry x="64" y="541" width="60" height="30" as="geometry" />
        </mxCell>
        <mxCell id="65FZGE9juqJNGa7GJoz4-23" value="" style="rounded=0;whiteSpace=wrap;html=1;" parent="1" vertex="1">
          <mxGeometry x="64" y="149" width="720" height="140" as="geometry" />
        </mxCell>
        <mxCell id="65FZGE9juqJNGa7GJoz4-24" value="includ cf:connection" style="text;html=1;align=center;verticalAlign=middle;whiteSpace=wrap;rounded=0;" parent="1" vertex="1">
          <mxGeometry x="154" y="189" width="230" height="30" as="geometry" />
        </mxCell>
        <mxCell id="65FZGE9juqJNGa7GJoz4-25" value="" style="rounded=0;whiteSpace=wrap;html=1;" parent="1" vertex="1">
          <mxGeometry x="64" y="943" width="720" height="337" as="geometry" />
        </mxCell>
        <mxCell id="65FZGE9juqJNGa7GJoz4-26" value="&lt;b&gt;Alt&lt;/b&gt;" style="text;html=1;align=center;verticalAlign=middle;whiteSpace=wrap;rounded=0;" parent="1" vertex="1">
          <mxGeometry x="64" y="953" width="60" height="30" as="geometry" />
        </mxCell>
        <mxCell id="65FZGE9juqJNGa7GJoz4-33" value="" style="endArrow=classic;html=1;rounded=0;" parent="1" edge="1">
          <mxGeometry width="50" height="50" relative="1" as="geometry">
            <mxPoint x="131.25" y="993" as="sourcePoint" />
            <mxPoint x="406.75" y="993" as="targetPoint" />
          </mxGeometry>
        </mxCell>
        <mxCell id="65FZGE9juqJNGa7GJoz4-34" value="&lt;span style=&quot;font-size: 13px;&quot;&gt;demande de suppression d&#39; une task&lt;/span&gt;" style="edgeLabel;html=1;align=center;verticalAlign=middle;resizable=0;points=[];" parent="65FZGE9juqJNGa7GJoz4-33" vertex="1" connectable="0">
          <mxGeometry x="-0.103" y="3" relative="1" as="geometry">
            <mxPoint x="5" y="-20" as="offset" />
          </mxGeometry>
        </mxCell>
        <mxCell id="65FZGE9juqJNGa7GJoz4-35" value="&lt;span style=&quot;font-size: 13px;&quot;&gt;suppression&lt;/span&gt;" style="edgeLabel;html=1;align=center;verticalAlign=middle;resizable=0;points=[];" parent="65FZGE9juqJNGa7GJoz4-33" vertex="1" connectable="0">
          <mxGeometry x="-0.103" y="3" relative="1" as="geometry">
            <mxPoint x="302" y="3" as="offset" />
          </mxGeometry>
        </mxCell>
        <mxCell id="65FZGE9juqJNGa7GJoz4-36" value="&lt;span style=&quot;font-size: 13px;&quot;&gt;suppression effectué&lt;/span&gt;" style="edgeLabel;html=1;align=center;verticalAlign=middle;resizable=0;points=[];" parent="65FZGE9juqJNGa7GJoz4-33" vertex="1" connectable="0">
          <mxGeometry x="-0.103" y="3" relative="1" as="geometry">
            <mxPoint x="296" y="49" as="offset" />
          </mxGeometry>
        </mxCell>
        <mxCell id="65FZGE9juqJNGa7GJoz4-38" value="&lt;span style=&quot;font-size: 13px;&quot;&gt;message d&#39;erreur&lt;/span&gt;" style="edgeLabel;html=1;align=center;verticalAlign=middle;resizable=0;points=[];" parent="65FZGE9juqJNGa7GJoz4-33" vertex="1" connectable="0">
          <mxGeometry x="-0.103" y="3" relative="1" as="geometry">
            <mxPoint x="6" y="253" as="offset" />
          </mxGeometry>
        </mxCell>
        <mxCell id="65FZGE9juqJNGa7GJoz4-39" value="" style="endArrow=classic;html=1;rounded=0;" parent="1" edge="1">
          <mxGeometry width="50" height="50" relative="1" as="geometry">
            <mxPoint x="424" y="1013" as="sourcePoint" />
            <mxPoint x="679" y="1013" as="targetPoint" />
            <Array as="points">
              <mxPoint x="509" y="1013" />
            </Array>
          </mxGeometry>
        </mxCell>
        <mxCell id="65FZGE9juqJNGa7GJoz4-40" value="" style="endArrow=none;dashed=1;html=1;rounded=0;startArrow=classic;startFill=1;" parent="1" edge="1">
          <mxGeometry width="50" height="50" relative="1" as="geometry">
            <mxPoint x="424" y="1063" as="sourcePoint" />
            <mxPoint x="674" y="1063" as="targetPoint" />
          </mxGeometry>
        </mxCell>
        <mxCell id="65FZGE9juqJNGa7GJoz4-42" value="" style="endArrow=none;dashed=1;html=1;rounded=0;entryX=1.004;entryY=0.611;entryDx=0;entryDy=0;entryPerimeter=0;" parent="1" edge="1">
          <mxGeometry width="50" height="50" relative="1" as="geometry">
            <mxPoint x="64" y="1124" as="sourcePoint" />
            <mxPoint x="787" y="1123" as="targetPoint" />
          </mxGeometry>
        </mxCell>
        <mxCell id="65FZGE9juqJNGa7GJoz4-43" value="" style="endArrow=classic;html=1;rounded=0;" parent="1" edge="1">
          <mxGeometry width="50" height="50" relative="1" as="geometry">
            <mxPoint x="131.25" y="1183" as="sourcePoint" />
            <mxPoint x="406.75" y="1183" as="targetPoint" />
          </mxGeometry>
        </mxCell>
        <mxCell id="65FZGE9juqJNGa7GJoz4-44" value="&lt;span style=&quot;font-size: 13px;&quot;&gt;demande de suppression d&#39; une task&lt;/span&gt;" style="edgeLabel;html=1;align=center;verticalAlign=middle;resizable=0;points=[];" parent="65FZGE9juqJNGa7GJoz4-43" vertex="1" connectable="0">
          <mxGeometry x="-0.103" y="3" relative="1" as="geometry">
            <mxPoint x="15" y="-17" as="offset" />
          </mxGeometry>
        </mxCell>
        <mxCell id="65FZGE9juqJNGa7GJoz4-45" value="&lt;span style=&quot;font-size: 13px;&quot;&gt;suppression&lt;/span&gt;" style="edgeLabel;html=1;align=center;verticalAlign=middle;resizable=0;points=[];" parent="65FZGE9juqJNGa7GJoz4-43" vertex="1" connectable="0">
          <mxGeometry x="-0.103" y="3" relative="1" as="geometry">
            <mxPoint x="302" y="3" as="offset" />
          </mxGeometry>
        </mxCell>
        <mxCell id="65FZGE9juqJNGa7GJoz4-46" value="&lt;span style=&quot;font-size: 13px;&quot;&gt;echec de la suppression&lt;/span&gt;" style="edgeLabel;html=1;align=center;verticalAlign=middle;resizable=0;points=[];" parent="65FZGE9juqJNGa7GJoz4-43" vertex="1" connectable="0">
          <mxGeometry x="-0.103" y="3" relative="1" as="geometry">
            <mxPoint x="296" y="49" as="offset" />
          </mxGeometry>
        </mxCell>
        <mxCell id="65FZGE9juqJNGa7GJoz4-47" value="" style="endArrow=none;dashed=1;html=1;rounded=0;startArrow=classic;startFill=1;" parent="1" edge="1">
          <mxGeometry width="50" height="50" relative="1" as="geometry">
            <mxPoint x="131.25" y="1262" as="sourcePoint" />
            <mxPoint x="406.75" y="1262" as="targetPoint" />
          </mxGeometry>
        </mxCell>
        <mxCell id="65FZGE9juqJNGa7GJoz4-48" value="" style="endArrow=none;dashed=1;html=1;rounded=0;startArrow=classic;startFill=1;" parent="1" edge="1">
          <mxGeometry width="50" height="50" relative="1" as="geometry">
            <mxPoint x="424" y="1243" as="sourcePoint" />
            <mxPoint x="674" y="1243" as="targetPoint" />
          </mxGeometry>
        </mxCell>
        <mxCell id="65FZGE9juqJNGa7GJoz4-49" value="&lt;b&gt;else&lt;/b&gt;" style="text;html=1;align=center;verticalAlign=middle;whiteSpace=wrap;rounded=0;" parent="1" vertex="1">
          <mxGeometry x="64" y="1123" width="60" height="30" as="geometry" />
        </mxCell>
        <mxCell id="65FZGE9juqJNGa7GJoz4-50" value="" style="rounded=0;whiteSpace=wrap;html=1;" parent="1" vertex="1">
          <mxGeometry x="64" y="330" width="720" height="140" as="geometry" />
        </mxCell>
        <mxCell id="65FZGE9juqJNGa7GJoz4-51" value="&lt;font style=&quot;font-size: 15px;&quot;&gt;:user&lt;/font&gt;" style="shape=umlLifeline;perimeter=lifelinePerimeter;whiteSpace=wrap;html=1;container=0;dropTarget=0;collapsible=0;recursiveResize=0;outlineConnect=0;portConstraint=eastwest;newEdgeStyle={&quot;edgeStyle&quot;:&quot;elbowEdgeStyle&quot;,&quot;elbow&quot;:&quot;vertical&quot;,&quot;curved&quot;:0,&quot;rounded&quot;:0};" parent="1" vertex="1">
          <mxGeometry x="64" y="69" width="120" height="1251" as="geometry" />
        </mxCell>
        <mxCell id="65FZGE9juqJNGa7GJoz4-52" value="" style="html=1;points=[];perimeter=orthogonalPerimeter;outlineConnect=0;targetShapes=umlLifeline;portConstraint=eastwest;newEdgeStyle={&quot;edgeStyle&quot;:&quot;elbowEdgeStyle&quot;,&quot;elbow&quot;:&quot;vertical&quot;,&quot;curved&quot;:0,&quot;rounded&quot;:0};" parent="65FZGE9juqJNGa7GJoz4-51" vertex="1">
          <mxGeometry x="55" y="60" width="10" height="1170" as="geometry" />
        </mxCell>
        <mxCell id="65FZGE9juqJNGa7GJoz4-53" value="&lt;font style=&quot;font-size: 15px;&quot;&gt;:system&lt;/font&gt;" style="shape=umlLifeline;perimeter=lifelinePerimeter;whiteSpace=wrap;html=1;container=0;dropTarget=0;collapsible=0;recursiveResize=0;outlineConnect=0;portConstraint=eastwest;newEdgeStyle={&quot;edgeStyle&quot;:&quot;elbowEdgeStyle&quot;,&quot;elbow&quot;:&quot;vertical&quot;,&quot;curved&quot;:0,&quot;rounded&quot;:0};" parent="1" vertex="1">
          <mxGeometry x="347" y="70" width="135" height="1250" as="geometry" />
        </mxCell>
        <mxCell id="65FZGE9juqJNGa7GJoz4-54" value="" style="html=1;points=[];perimeter=orthogonalPerimeter;outlineConnect=0;targetShapes=umlLifeline;portConstraint=eastwest;newEdgeStyle={&quot;edgeStyle&quot;:&quot;elbowEdgeStyle&quot;,&quot;elbow&quot;:&quot;vertical&quot;,&quot;curved&quot;:0,&quot;rounded&quot;:0};" parent="65FZGE9juqJNGa7GJoz4-53" vertex="1">
          <mxGeometry x="62.5" y="60" width="10" height="1170" as="geometry" />
        </mxCell>
        <mxCell id="65FZGE9juqJNGa7GJoz4-55" value="&lt;font style=&quot;font-size: 15px;&quot;&gt;:Bdd&lt;/font&gt;" style="shape=umlLifeline;perimeter=lifelinePerimeter;whiteSpace=wrap;html=1;container=0;dropTarget=0;collapsible=0;recursiveResize=0;outlineConnect=0;portConstraint=eastwest;newEdgeStyle={&quot;edgeStyle&quot;:&quot;elbowEdgeStyle&quot;,&quot;elbow&quot;:&quot;vertical&quot;,&quot;curved&quot;:0,&quot;rounded&quot;:0};" parent="1" vertex="1">
          <mxGeometry x="634" y="70" width="100" height="1250" as="geometry" />
        </mxCell>
        <mxCell id="65FZGE9juqJNGa7GJoz4-56" value="" style="html=1;points=[];perimeter=orthogonalPerimeter;outlineConnect=0;targetShapes=umlLifeline;portConstraint=eastwest;newEdgeStyle={&quot;edgeStyle&quot;:&quot;elbowEdgeStyle&quot;,&quot;elbow&quot;:&quot;vertical&quot;,&quot;curved&quot;:0,&quot;rounded&quot;:0};" parent="65FZGE9juqJNGa7GJoz4-55" vertex="1">
          <mxGeometry x="45" y="60" width="10" height="1170" as="geometry" />
        </mxCell>
        <mxCell id="65FZGE9juqJNGa7GJoz4-57" value="includ cf:user" style="text;html=1;align=center;verticalAlign=middle;whiteSpace=wrap;rounded=0;" parent="1" vertex="1">
          <mxGeometry x="154" y="370" width="230" height="30" as="geometry" />
        </mxCell>
        <mxCell id="65FZGE9juqJNGa7GJoz4-60" value="" style="endArrow=classic;html=1;rounded=0;" parent="1" edge="1">
          <mxGeometry width="50" height="50" relative="1" as="geometry">
            <mxPoint x="425" y="748" as="sourcePoint" />
            <mxPoint x="680" y="748" as="targetPoint" />
            <Array as="points">
              <mxPoint x="510" y="748" />
            </Array>
          </mxGeometry>
        </mxCell>
        <mxCell id="65FZGE9juqJNGa7GJoz4-67" value="" style="endArrow=classic;html=1;rounded=0;" parent="1" edge="1">
          <mxGeometry width="50" height="50" relative="1" as="geometry">
            <mxPoint x="425" y="1210" as="sourcePoint" />
            <mxPoint x="680" y="1210" as="targetPoint" />
            <Array as="points">
              <mxPoint x="510" y="1210" />
            </Array>
          </mxGeometry>
        </mxCell>
      </root>
    </mxGraphModel>
  </diagram>
</mxfile>
